/* XPM */
static const char * easpanel_22x22_xpm[] = {
"22 22 195 2",
"  	c None",
". 	c #000000",
"+ 	c #060606",
"@ 	c #404040",
"# 	c #696B6B",
"$ 	c #696D6C",
"% 	c #686969",
"& 	c #686868",
"* 	c #696A6A",
"= 	c #696B6C",
"- 	c #696969",
"; 	c #525252",
"> 	c #101010",
", 	c #040404",
"' 	c #CECECE",
") 	c #FFFFFF",
"! 	c #EEACAA",
"~ 	c #DC4E50",
"{ 	c #FBEBE9",
"] 	c #F9DCDA",
"^ 	c #DA474A",
"/ 	c #F3C5C3",
"( 	c #F5D0CE",
"_ 	c #EA9897",
": 	c #FFFEFE",
"< 	c #E6E6E6",
"[ 	c #373737",
"} 	c #FDFDFD",
"| 	c #FEFFFD",
"1 	c #CF131B",
"2 	c #D31C26",
"3 	c #E57E81",
"4 	c #FEFEFE",
"5 	c #D74145",
"6 	c #D31D26",
"7 	c #D53036",
"8 	c #FEFEFD",
"9 	c #FEFFFF",
"0 	c #D63239",
"a 	c #D21720",
"b 	c #EFB5B4",
"c 	c #747474",
"d 	c #494949",
"e 	c #FDFFFC",
"f 	c #D11821",
"g 	c #D52029",
"h 	c #E27678",
"i 	c #D8494D",
"j 	c #D41F28",
"k 	c #D62E35",
"l 	c #FDF9F8",
"m 	c #D6373C",
"n 	c #D41E28",
"o 	c #DD5D5F",
"p 	c #A5A5A5",
"q 	c #D12329",
"r 	c #D42029",
"s 	c #DF6569",
"t 	c #E07174",
"u 	c #D31C25",
"v 	c #D52830",
"w 	c #FAEAE9",
"x 	c #DF6467",
"y 	c #D41F29",
"z 	c #D31B24",
"A 	c #DB4E53",
"B 	c #E58284",
"C 	c #FFFBFB",
"D 	c #A7A7A7",
"E 	c #DA4A4E",
"F 	c #DC4C50",
"G 	c #F0BFBD",
"H 	c #F1C6C6",
"I 	c #F9E7E6",
"J 	c #D22129",
"K 	c #D4222B",
"L 	c #F8D8D9",
"M 	c #E58B8B",
"N 	c #D31D27",
"O 	c #D5282E",
"P 	c #FDFFFE",
"Q 	c #D42C31",
"R 	c #D94348",
"S 	c #F8E6E5",
"T 	c #E2797A",
"U 	c #D7363B",
"V 	c #DC5558",
"W 	c #FDF6F6",
"X 	c #F5D7D6",
"Y 	c #D31821",
"Z 	c #F0BCBB",
"` 	c #E48385",
" .	c #D31A24",
"..	c #E89292",
"+.	c #FCF3F3",
"@.	c #D62F37",
"#.	c #D73B40",
"$.	c #FBF3F1",
"%.	c #D21F26",
"&.	c #D32129",
"*.	c #EDAAA7",
"=.	c #E06769",
"-.	c #D41D26",
";.	c #F3CACA",
">.	c #F4CECE",
",.	c #D3222A",
"'.	c #D21821",
").	c #E58081",
"!.	c #F8E3E3",
"~.	c #FAF2EF",
"{.	c #DA4649",
"].	c #D11820",
"^.	c #D52028",
"/.	c #D4262E",
"(.	c #D9494C",
"_.	c #E68C8D",
":.	c #EDA8A9",
"<.	c #FDF5F5",
"[.	c #E58688",
"}.	c #D21822",
"|.	c #E48484",
"1.	c #F4D2D1",
"2.	c #DA4C51",
"3.	c #D31A23",
"4.	c #DE575A",
"5.	c #A8B0B0",
"6.	c #FCF4F3",
"7.	c #D3262E",
"8.	c #D11F27",
"9.	c #F0C1C0",
"0.	c #F0BCBC",
"a.	c #D84045",
"b.	c #D3212A",
"c.	c #D4212A",
"d.	c #E1686A",
"e.	c #A8AFAF",
"f.	c #F6DAD9",
"g.	c #D4252C",
"h.	c #D42129",
"i.	c #D31D25",
"j.	c #ECA5A5",
"k.	c #F9EAEA",
"l.	c #F2C8C9",
"m.	c #FEF9F7",
"n.	c #ECACAB",
"o.	c #D31F27",
"p.	c #E37E7D",
"q.	c #FBF5F5",
"r.	c #F0BEBE",
"s.	c #D21B24",
"t.	c #D41D27",
"u.	c #D83940",
"v.	c #EBA3A2",
"w.	c #F4D6D3",
"x.	c #D83C42",
"y.	c #D31C24",
"z.	c #D31822",
"A.	c #D42C33",
"B.	c #E78F90",
"C.	c #F8E1E1",
"D.	c #FAECEC",
"E.	c #FBF1F1",
"F.	c #FCF8F7",
"G.	c #E89797",
"H.	c #D21C23",
"I.	c #D41E27",
"J.	c #D52831",
"K.	c #D73038",
"L.	c #EA9797",
"M.	c #A7ABAB",
"N.	c #474747",
"O.	c #F9E9E7",
"P.	c #E58587",
"Q.	c #DA464B",
"R.	c #D31B25",
"S.	c #D94145",
"T.	c #A6B0B0",
"U.	c #2C2C2C",
"V.	c #FBFBFB",
"W.	c #FDFCFC",
"X.	c #FCF1F0",
"Y.	c #EFB8B6",
"Z.	c #E4807F",
"`.	c #DE5F60",
" +	c #DB5354",
".+	c #FAD5D4",
"++	c #737474",
"@+	c #010101",
"#+	c #9B9B9B",
"$+	c #BABCBC",
"%+	c #020202",
"&+	c #242424",
"*+	c #515151",
"=+	c #505050",
"-+	c #2B2B2B",
". + @ # $ % & & & * $ * & & & * = % - ; > . ",
", ' ) ! ~ { ) ) ) ] ^ / ) ) ) ( _ : ) ) < . ",
"[ } | 1 2 3 4 4 ) 5 6 7 8 4 9 0 a b ) 4 ) c ",
"d 4 e f g h 4 4 ) i j k l 4 9 m n o ) 4 ) p ",
"d 4 ) q r s 4 4 ) t u v w 4 4 x y z A B C D ",
"d 4 ) E j F 9 4 9 G a r H 9 4 I J j r K L D ",
"d 4 ) M N O P 4 4 ) Q r R ) 4 9 S T U V W D ",
"d 4 9 X j Y Z ) 4 9 ` j  ...9 4 4 ) ) ) ) D ",
"d 4 4 +.@.j #.9 4 4 $.%.r &.*.) 4 4 4 4 ) D ",
"d 4 4 9 =.-.r ;.9 4 ) >.,.r '.).!.) ) ) ) D ",
"d 4 4 4 ~.f r {.) 4 4 4 Z ].r ^./.(._.:.<.D ",
"d 4 4 4 ) [.r }.|.9 4 4 ) 1.2.a n n 3.'.4.5.",
"d 4 4 4 4 6.7.r 8.9.) 4 4 4 9 0.a.b.K c.d.e.",
"d 4 4 4 4 ) f.g.h.i.j.) 4 4 4 ) ) k.1.l.m.D ",
"d 4 4 4 4 4 4 n.o.r ].p.q.9 4 4 4 4 4 4 ) D ",
"d 4 4 4 4 4 4 ) r.s.r t.u.v.) ) 4 4 4 4 ) D ",
"d 4 4 4 4 4 4 4 ) w.x.y.r z.A.B.>.C.D.E.) D ",
"d 4 4 4 4 4 4 4 4 9 F.G.H.n r I.c.J.k K.L.M.",
"N.4 4 4 4 4 4 4 4 4 4 ) O.P.Q.%.'.R.-.I.S.T.",
"U.V.4 4 4 4 4 4 4 4 4 4 4 4 W.X.Y.Z.`. +.+++",
"@+#+) ) ) ) ) ) ) ) ) ) ) ) ) ) ) ) ) ) $+%+",
". . &+*+=+=+=+=+=+=+=+=+=+=+=+=+=+=+; -+. . "};
